<?xml version="1.0" standalone="no"?>
<!DOCTYPE svg PUBLIC "-//W3C//DTD SVG 1.1//EN" "http://www.w3.org/Graphics/SVG/1.1/DTD/svg11.dtd" >
<svg xmlns="http://www.w3.org/2000/svg" xmlns:xlink="http://www.w3.org/1999/xlink" version="1.1">
<metadata>
Created by FontForge 20150824 at Sat Jun  4 03:49:43 2016
 By Everything Fonts
PopStar Autograph: Dirt2.com (c) 2009. All Rights Reserved
</metadata>
<defs>
<font id="popstarAutograph" horiz-adv-x="100" >
  <font-face 
    font-family="popstarAutograph"
    font-weight="400"
    font-stretch="normal"
    units-per-em="2048"
    panose-1="2 0 5 0 0 0 0 0 0 0"
    ascent="1638"
    descent="-410"
    x-height="656"
    cap-height="1284"
    bbox="-402.385 -1500 2474 1648"
    underline-thickness="150"
    underline-position="-442"
    unicode-range="U+0020-007A"
  />
<missing-glyph 
 />
    <glyph glyph-name=".notdef" 
 />
    <glyph glyph-name=".null" horiz-adv-x="0" 
 />
    <glyph glyph-name="nonmarkingreturn" 
 />
    <glyph glyph-name="space" unicode=" " horiz-adv-x="498" 
 />
    <glyph glyph-name="space" unicode="&#xa0;" horiz-adv-x="498" 
 />
    <glyph glyph-name="exclam" unicode="!" horiz-adv-x="459" 
d="M195 1547q65 0 65 -259l65 -767q0 -120 -40 -259h-49q-21 0 -33 75h-8v-33h-8v8l16 542q0 78 -65 484l-8 84q0 125 65 125zM276 145q50 -13 50 -60q-17 -77 -82 -77q-81 0 -81 64q23 73 107 73h6z" />
    <glyph glyph-name="quotedbl" unicode="&#x22;" horiz-adv-x="591" 
d="M382 1641q67 0 67 -58l-7 -32l53 -269h-6l-40 -5h-20q-60 22 -60 137l6 53q-40 100 -40 132q9 42 47 42zM148 1636q60 0 60 -101q54 -131 54 -211v-10l-34 -5q-73 0 -73 74v42l-7 5l7 16q0 34 -60 148v15q8 27 53 27z" />
    <glyph glyph-name="numbersign" unicode="#" horiz-adv-x="1245" 
d="M1023 1189q78 0 78 -120q0 -159 -156 -503l-312 -486q-60 -120 -108 -120q-148 0 -295 524q-90 368 -90 443q6 65 30 65h36q117 -16 288 -360l37 -88q51 46 228 388q128 257 264 257zM585 452q0 -56 78 -104v-17l-54 -10q-104 0 -121 87q-131 372 -258 470h-6l90 -519
q29 -95 150 -252q53 -60 85 -60l120 208q360 508 360 765v38q-12 49 -30 49q-67 0 -192 -169q0 -23 -72 -99q-86 -155 -150 -376v-11z" />
    <glyph glyph-name="dollar" unicode="$" horiz-adv-x="1500" 
d="M1264 1330q83 0 95 -126v-11q0 -255 -390 -915l-139 -321l-56 -51h-7q-14 0 -18 29q0 60 169 366q365 680 365 886q0 59 -50 63q-185 -62 -377 -446q-70 -125 -70 -292q-19 -91 -37 -91q-49 0 -57 68l6 223q0 114 -220 309q-94 52 -132 52h-25q-115 0 -139 -212v-63
q0 -244 195 -486q100 -103 284 -103l106 -17v-6q-88 -46 -182 -46q-248 0 -428 395q-50 163 -50 280q0 233 164 332l62 11q190 0 397 -308q23 -66 44 -80h12q22 0 95 200q227 360 383 360z" />
    <glyph glyph-name="percent" unicode="%" horiz-adv-x="1436" 
d="M731 1197l13 -12l-7 -77q22 -17 72 -29l32 6h26q129 0 306 -189q117 -151 117 -337q0 -320 -293 -508q-144 -71 -279 -71h-65q-273 0 -449 213q-84 144 -84 301q0 331 357 543q29 21 143 42q46 23 46 100q33 18 65 18zM763 1008q-26 0 -32 -160q0 -254 52 -324
q188 -274 312 -284q48 0 97 177q13 47 13 118q0 264 -286 432q-87 41 -156 41zM191 512q12 -168 117 -302l20 -6l136 142q215 188 215 278l6 29q-33 343 -58 343h-7q-228 0 -383 -301q-33 -65 -46 -183zM386 145v-5q0 -49 247 -77q46 0 46 12q-20 31 -20 100l7 183l-13 83
q-34 -47 -228 -225q-39 -44 -39 -71zM750 370l7 -30v-47l-33 -207l13 -23q273 51 273 100v6l-156 83q-15 56 -97 118h-7z" />
    <glyph glyph-name="ampersand" unicode="&#x26;" horiz-adv-x="1315" 
d="M946 1260q49 0 101 -115q0 -54 -61 -266h8l18 -3l110 7q88 -26 88 -103v-16q0 -97 -119 -131q-97 -16 -97 -30l80 -119q8 -22 8 -66q0 -179 -136 -215h-57l-115 85q-13 -8 -52 -139q-82 -119 -146 -119h-13q-108 0 -136 208v15l9 73q0 35 -146 35q-154 64 -154 138
q0 64 106 88l26 23v4q0 22 -61 46q-97 114 -97 189q16 80 84 80l110 -3q29 21 70 165q40 58 92 58h22q126 0 163 -312q37 39 123 227q107 184 172 196zM717 845v-19q0 -22 66 -54q20 0 27 -96q67 -19 132 -27q133 0 211 65q13 20 13 39q0 67 -92 88h-22q-79 0 -146 -88
q-40 -35 -57 -35q-20 7 -22 15v16q0 28 97 96q70 130 70 254q0 92 -61 92h-5q-93 0 -206 -308zM352 953v-12q0 -35 97 -104l13 -42q0 -40 -35 -46q-51 0 -101 77q-6 53 -27 53l-44 4h-44q-53 -2 -53 -46q0 -68 146 -192l39 -12l106 4l57 -7q65 142 70 142q0 11 27 19l9 23
v19q0 125 -115 254l-35 12q-51 -14 -75 -50q-35 -54 -35 -96zM656 683q-13 1 -40 58h-9v-11q0 -33 -48 -58l-5 -15v-12q0 -68 102 -85h4q82 0 106 123v4q-14 77 -62 77h-4q-16 0 -36 -81h-8zM744 510q30 -257 171 -257q91 0 119 119v27q0 148 -185 211l-31 4
q-74 -11 -74 -92v-12zM502 587q-20 -27 -49 -27l-163 4q-86 0 -101 -61v-12q0 -56 137 -96q19 -8 57 -8q71 0 88 54l66 104v15q-10 20 -35 27zM458 322v-34q0 -140 88 -208l26 -8q95 0 154 216l4 46q0 57 -61 184l-22 4q-34 0 -44 -58q-16 -19 -132 -88q-13 -30 -13 -54z
M506 445q40 12 40 39v7h-5q-35 -34 -35 -46z" />
    <glyph glyph-name="quotesingle" unicode="'" horiz-adv-x="353" 
d="M103 1629q66 0 66 -58l-6 -32l53 -269h-7l-40 -5h-20q-60 22 -60 137l7 53q-40 100 -40 132q8 42 47 42z" />
    <glyph glyph-name="parenleft" unicode="(" horiz-adv-x="714" 
d="M552 1635h6v-9q0 -17 -62 -85q-322 -398 -322 -772q0 -376 378 -768l49 -57l-6 -23h-12q-97 19 -248 206q-235 272 -235 599q0 512 334 862q74 47 118 47z" />
    <glyph glyph-name="parenright" unicode=")" horiz-adv-x="714" 
d="M267 1588q334 -350 334 -862q0 -327 -235 -599q-150 -187 -247 -206h-13l-6 23l50 57q377 392 377 768q0 374 -322 772q-62 68 -62 85v9h7q44 0 117 -47z" />
    <glyph glyph-name="asterisk" unicode="*" horiz-adv-x="2643" 
d="M2361 1575q113 0 113 -125q0 -151 -167 -422l-95 -114v11q0 26 47 103v11q0 51 -149 108v-5q-11 -55 -59 -55q-72 0 -72 103q-21 19 -107 33q-36 -11 -36 -22q2 -52 203 -217v-5q0 -13 -48 -27q-92 0 -185 135v11l18 27l-35 11h-6q-56 -39 -84 -103q0 -25 191 -125
l71 -37v-6q-12 -22 -35 -22q-70 0 -173 71l-96 32q-67 -188 -95 -189h-6q-12 0 -24 32q54 150 54 185q0 10 -137 135l-12 49q15 35 30 38h6q38 0 131 -125l30 -11q131 98 131 152l-18 70v11q0 16 53 27h6l185 -38q36 0 155 206q107 87 215 87zM2075 1277q0 -34 131 -81
l71 -82h24q101 213 101 315q0 76 -77 76q-106 0 -232 -163zM1270 1288q43 -8 48 -92q0 -79 -114 -504q0 -78 -23 -82h-12q-20 0 -24 71v92l71 309q12 23 12 87v5l-6 27q-72 0 -196 -238q-6 -103 -24 -103h-18l-30 5v-5l54 -65q-12 -25 -24 -27q-49 0 -185 157q-55 38 -83 38
q-30 0 -30 -33q23 -147 185 -276q71 -54 71 -81q-8 -23 -30 -33h-18q-99 0 -262 303q-30 81 -30 131v5q0 67 66 76h24q104 0 250 -152v-11h12l-6 16q0 137 209 331q57 49 113 49zM245 871q32 0 101 -120l18 -5q19 1 77 97l6 6h24v-27q0 -30 -41 -114q143 -131 214 -141
q24 0 42 -27v-5l-18 -17h-6q-56 0 -256 120l-24 5l-131 -244l-30 -5l-12 16v22q0 39 119 238v16l-119 125l-6 32q8 28 42 28zM2063 686q101 0 101 -113q0 -79 -107 -391q-34 -113 -72 -113q-114 38 -214 189q-70 157 -96 157h-24q-77 -66 -89 -140l-6 -33q1 -28 149 -103
q54 -52 54 -70h-12q-35 0 -233 86h-6v-5q0 -85 -59 -136h-24l-24 22l42 130v22q-137 134 -137 189v6q9 22 41 22q23 -3 120 -114l6 -6h12q116 146 149 223l-12 48q34 27 59 27h24q34 0 113 -75l24 -6h12q14 2 113 141q35 36 96 43zM1914 459q0 -61 113 -152h12
q65 188 65 233v5q-6 65 -59 65q-84 0 -131 -146v-5zM1216 545h6q57 0 66 -86q0 -95 -131 -461q0 -87 -18 -87h-18q-103 23 -274 266q-33 34 -78 108q-24 0 -47 -81v-32q0 -120 166 -271l36 -11l30 5v-32q-3 -12 -30 -22q-142 42 -196 125l-48 65q-25 0 -66 -147
q-21 -27 -41 -27q-25 8 -36 27v22q0 26 77 179v11l-208 260l-12 49q6 21 36 21h17q58 -34 90 -103q66 -90 101 -108h6q28 0 89 162q36 44 78 44q98 0 203 -109l23 -16l18 16l-6 6v32q0 80 126 190zM1729 475v-11l95 -168q105 -119 149 -119h6l12 76q0 31 -149 76
q-43 151 -95 151zM1187 459q-66 -85 -66 -163q0 -40 30 -124h12l47 211q-10 76 -23 76zM865 302q117 -255 214 -255h6q46 0 54 54q0 83 -274 201z" />
    <glyph glyph-name="plus" unicode="+" horiz-adv-x="2643" 
 />
    <glyph glyph-name="comma" unicode="," horiz-adv-x="407" 
d="M237 230q59 -29 36 -83l-19 -26l-61 -272l-6 3l-37 13l-18 9q-45 46 1 153l28 45q4 111 17 140q24 35 59 18z" />
    <glyph glyph-name="hyphen" unicode="-" 
 />
    <glyph glyph-name="hyphen" unicode="&#xad;" 
 />
    <glyph glyph-name="period" unicode="." horiz-adv-x="396" 
d="M236 184q76 -19 76 -91q-26 -118 -124 -118q-124 0 -124 98q36 111 162 111h10z" />
    <glyph glyph-name="slash" unicode="/" 
 />
    <glyph glyph-name="zero" unicode="0" horiz-adv-x="1275" 
d="M609 1255h32q205 0 256 -64v-6l-13 -11h-224q-247 0 -351 -325q-64 -141 -64 -297q0 -328 147 -406q112 -87 224 -87h44q189 0 333 220q51 122 51 210q0 245 -179 545v6l6 29h19q106 -82 154 -191q96 -197 96 -395q0 -267 -237 -424q-146 -82 -249 -82q-236 0 -403 209
q-89 124 -89 407q0 233 166 511q125 151 281 151z" />
    <glyph glyph-name="one" unicode="1" horiz-adv-x="903" 
d="M349 1270q18 0 45 -41l64 -1045v-117h6q188 24 307 24h26q19 0 19 -53q0 -46 -230 -46h-96l-268 -52h-39q-70 0 -70 46t89 46l186 18q-32 109 -32 319v209q0 111 -51 488v24l-7 5h-6q-51 -110 -109 -110h-6q-32 13 -32 58v6q126 100 172 209z" />
    <glyph glyph-name="two" unicode="2" horiz-adv-x="1032" 
d="M429 1236q398 0 435 -151q19 -39 19 -82v-5q0 -165 -243 -500l-357 -430q594 28 594 64h6l26 -35q0 -87 -288 -87q-167 0 -351 -29h-26q-73 0 -83 29v18q0 31 230 331q360 395 415 609v24q0 100 -115 139q-77 17 -217 18q-174 0 -211 -70q-61 -72 -108 -93h-26
q-19 6 -19 35q111 215 262 215h57z" />
    <glyph glyph-name="three" unicode="3" horiz-adv-x="1140" 
d="M971 1260l12 -29q0 -109 -428 -488h-6v-6q220 -58 319 -145q160 -156 160 -221v-17q0 -159 -236 -291q-99 -46 -211 -46h-64q-205 0 -351 168l-13 35v12l19 17h6q173 -157 390 -157q286 0 396 250v12q0 50 -134 168q-61 66 -371 163l-6 -6l-32 35q2 48 313 279l122 180
l-77 -6l-281 11l-275 -40q-115 0 -115 52v12q0 12 58 23l63 -6z" />
    <glyph glyph-name="four" unicode="4" horiz-adv-x="1037" 
d="M868 1266q29 -6 29 -35l8 5h7l-7 -46l7 -145l-7 -174l15 -395q-23 -378 -52 -523h-75l-15 93q0 120 52 575l-7 35l-45 -12h-75q-56 0 -283 46l-239 -5q-75 13 -75 40l15 53l-8 5l38 233l-23 151q0 54 53 69q67 -10 67 -34l-15 -169l7 -93l-15 -168l598 -52v5l-30 413
q22 128 75 128z" />
    <glyph glyph-name="five" unicode="5" horiz-adv-x="1026" 
d="M824 1307q70 -9 70 -29v-11q0 -53 -83 -53q-345 -52 -593 -52h-6v-6q0 -69 70 -372l32 6h64q341 0 441 -122q115 -138 115 -285q0 -259 -307 -377l-140 -12q-288 0 -390 139v6l13 29h13l108 -46q125 -29 249 -29h45q197 0 320 215l6 75q0 209 -205 291l-434 34
q-48 0 -57 297q-52 109 -52 162q0 93 179 93h13l211 -6q33 0 273 53h45z" />
    <glyph glyph-name="six" unicode="6" horiz-adv-x="1067" 
d="M494 1261h7q127 0 127 -29q-22 -29 -178 -47q-137 -46 -205 -145q-83 -155 -83 -523q0 -260 205 -435q80 -35 172 -35h83q178 0 224 75q51 82 51 209v53q0 136 -147 261l-51 12h-83q-181 0 -294 -198q-24 -51 -32 -151l-26 -17h-12l-13 52v99q0 113 198 255
q101 41 172 41h96q153 0 256 -232q25 -63 25 -140q0 -273 -166 -360q-67 -23 -160 -23h-108q-274 0 -377 221q-96 129 -96 336q0 470 109 570q131 151 306 151z" />
    <glyph glyph-name="seven" unicode="7" horiz-adv-x="961" 
d="M688 1333h103l44 -5v5q39 -10 39 -35q-141 -653 -256 -1045q-49 -114 -102 -308l-32 -6h-6q-21 0 -26 64q0 108 185 610q45 137 96 529l38 116h-6l-38 -6l-313 12q-184 -29 -250 -29q-89 5 -89 29v11q0 41 58 41h12z" />
    <glyph glyph-name="eight" unicode="8" horiz-adv-x="1100" 
d="M1066 1581h6v-11h-6v11zM440 1378q208 0 345 -215q26 -41 26 -105v-23q0 -178 -160 -273q88 0 262 -180q89 -117 89 -284q0 -198 -166 -256q-102 -52 -294 -52l-153 -6q-159 0 -281 203q-45 109 -45 192q0 273 275 424q-61 0 -160 133q-38 83 -38 146v46q0 171 223 244z
M216 1122q0 -99 103 -209q150 -93 262 -93q89 50 89 70q45 96 45 163q0 121 -166 220q-75 35 -135 35q-158 0 -198 -186zM152 373q19 -253 205 -314l32 -5h128q238 0 370 122l19 104v6q0 282 -300 412q-137 23 -140 35q0 15 -26 18q-288 -136 -288 -378z" />
    <glyph glyph-name="nine" unicode="9" horiz-adv-x="918" 
d="M675 1228h10q48 0 48 -266l69 -976l-21 -10h-16q-54 0 -69 493v136q-7 217 -26 217q-84 -97 -298 -97q-199 0 -271 141l-11 62q0 168 250 276q75 19 133 19q105 0 175 -63q9 68 27 68zM154 943v-29q35 -116 191 -116h6q171 0 239 53q33 0 48 77l21 5l-16 160
q-97 58 -170 58q-189 0 -303 -155z" />
    <glyph glyph-name="colon" unicode=":" 
 />
    <glyph glyph-name="semicolon" unicode=";" 
 />
    <glyph glyph-name="semicolon" unicode="&#x37e;" 
 />
    <glyph glyph-name="less" unicode="&#x3c;" 
 />
    <glyph glyph-name="equal" unicode="=" 
 />
    <glyph glyph-name="greater" unicode="&#x3e;" 
 />
    <glyph glyph-name="question" unicode="?" horiz-adv-x="1026" 
d="M488 1499q265 0 388 -281l9 -104q0 -219 -289 -459q-130 -165 -153 -333l-36 -15q-54 0 -54 103v38q0 176 306 436q109 125 109 245v37q0 184 -262 237q-172 0 -334 -333l-27 -15q-48 0 -63 29v30q0 181 235 341q75 44 171 44zM447 -12q-103 0 -132 101q0 90 101 90
q79 0 100 -108q0 -66 -61 -83h-8z" />
    <glyph glyph-name="at" unicode="@" horiz-adv-x="2195" 
d="M1079 1648q564 -24 613 -76q159 -59 245 -195q113 -112 175 -447l6 -133q0 -323 -258 -428q0 -17 -123 -32q-194 0 -296 158h-7q-16 -59 -142 -63q-201 0 -393 113q-97 88 -97 158v50q0 139 271 252l103 13h52q143 0 271 -246q25 -69 32 -145q0 -66 -39 -120
q101 -94 233 -94q102 0 238 132q65 80 65 233v38q0 362 -233 605q-166 151 -625 151l-104 7q-310 0 -632 -265q-134 -89 -213 -347q-52 -232 -52 -321q0 -385 349 -561q434 -189 781 -189h238q191 0 465 183l32 12v-12q0 -94 -329 -233q-92 -32 -232 -32h-207
q-418 0 -890 252q-284 209 -284 567q0 324 187 631q398 384 800 384zM879 728q0 -126 316 -189l110 -13h32q33 0 58 38l39 6l7 -6v19q0 192 -188 340l-45 13h-38q-180 0 -278 -151z" />
    <glyph glyph-name="A" unicode="A" horiz-adv-x="1432" 
d="M134 1524q48 0 87 -331q103 -347 167 -677h8q34 317 79 490q135 482 301 482q191 0 261 -828q28 -50 71 -50l270 43v-22q0 -26 -301 -136q29 -250 95 -360q16 0 47 -65l-47 -87h-32q-60 0 -119 418q-28 65 -55 65q-262 -58 -452 -130q-31 -26 -31 -57l24 -267v-36
q0 -39 -40 -57h-8q-87 0 -87 244q0 116 -87 116q-72 9 -72 64v8l103 50l8 36q0 48 -253 979l-8 65q0 29 71 43zM483 552q10 -115 39 -115q177 41 420 137l16 65q-75 571 -135 684q-16 28 -47 43h-8q-85 0 -206 -281q-79 -350 -79 -533z" />
    <glyph glyph-name="B" unicode="B" horiz-adv-x="1588" 
d="M569 1370q468 0 634 -199l31 -92q0 -153 -174 -252l-32 -39q0 -20 143 -38q246 -166 246 -390q0 -251 -428 -353q-117 -45 -412 -68q-319 0 -507 375v23l8 7h8q248 -252 333 -252q47 0 47 46v15l-39 38l39 322l-32 130q56 95 56 436l32 38h23q55 0 64 -68l-48 -261v-15
q0 -41 32 -54q270 0 523 291l8 31q0 82 -191 207q-115 30 -221 30h-143q-168 0 -626 -161h-31q-18 0 -24 39q0 84 412 191q157 23 269 23zM545 199v-115q0 -23 87 -23h56q270 0 546 153q72 66 72 161v38q0 154 -246 230q-31 15 -142 23q-243 -23 -325 -69q-48 0 -48 -398z
" />
    <glyph glyph-name="C" unicode="C" horiz-adv-x="1282" 
d="M815 1364q258 0 365 -252l8 -36v-21q-13 -29 -56 -29h-16q-13 0 -111 158q-114 71 -206 79q-273 0 -483 -496q-55 -180 -55 -296v-72q0 -259 285 -345l103 -15q262 0 436 252l55 36v-7q0 -89 -190 -295q-124 -86 -261 -86h-56q-308 0 -459 302q-24 126 -24 216
q0 476 364 806q157 101 301 101z" />
    <glyph glyph-name="D" unicode="D" horiz-adv-x="1765" 
d="M649 1255q354 0 657 -188q309 -216 309 -525q0 -387 -420 -497q-155 -36 -198 -65q-112 22 -269 22l-134 -43q-32 0 -32 28q0 36 -246 94q-111 45 -111 86q11 36 56 36l222 -93l55 -7q48 14 48 79v21l-16 303q23 540 111 540h8q39 -33 39 -72l-39 -799h-8q0 -86 111 -94
h71q372 0 610 266q47 72 47 173q0 301 -483 562q-206 79 -277 79l-531 -65h-24q-55 0 -55 36q0 84 499 123z" />
    <glyph glyph-name="E" unicode="E" horiz-adv-x="1151" 
d="M1196 1390h8l16 -14v-7q0 -58 -713 -122q-64 -41 -64 -82l16 -108l-63 -247l-8 -74q5 -55 32 -55q268 0 499 34h31v-20q0 -50 -538 -102q-56 -35 -56 -170v-34q0 -248 119 -292q95 -34 222 -34q133 0 245 34l8 -21q-63 -108 -285 -108h-55q-341 25 -341 170l-8 47v7
l16 217v55q0 56 -63 88l-8 27v7q95 52 95 95v116l63 307v14q0 39 -24 68l-158 -7h-32q-63 0 -63 54q0 93 974 150l119 -7z" />
    <glyph glyph-name="F" unicode="F" horiz-adv-x="1034" 
d="M1156 1294q63 -5 63 -22q0 -55 -728 -165q-167 0 -167 -80v-208q0 -53 24 -58q145 36 388 36h63q111 0 111 -29l-87 -50q-463 -20 -491 -87l-8 -50l16 -209q-17 -453 -71 -453q-71 0 -71 151l47 511v22q0 21 -71 21l-8 7v51q63 73 63 129l-79 332v7q0 79 119 79h134
q275 0 753 65z" />
    <glyph glyph-name="G" unicode="G" horiz-adv-x="1422" 
d="M722 1317q167 -12 167 -94l8 -58l-24 -28q-36 0 -127 86q-143 -15 -309 -144q-166 -232 -166 -518v-44q0 -248 142 -331q70 -36 143 -36h8q239 0 380 346l71 137l-23 7l-412 -72h-48q-51 0 -71 36v21q0 66 657 108q49 7 143 101h8q52 0 63 -65q0 -67 -190 -403
q-111 -351 -111 -662q-18 -79 -39 -79h-8q-50 0 -64 180q0 220 214 806v36h-8q-171 -407 -317 -511q-114 -108 -253 -108h-71q-256 0 -317 396l-8 137q0 449 317 662q109 94 245 94z" />
    <glyph glyph-name="H" unicode="H" horiz-adv-x="1125" 
d="M1001 1350q26 -8 26 -47v-16l-70 -464v-23l17 -87q-106 -176 -106 -550l27 -394l-27 -15q-91 0 -115 259v8q0 138 80 558q0 37 -97 55q-354 -26 -354 -47q-44 -91 -62 -299l9 -94q-9 -189 -62 -197h-44q-38 0 -53 110l80 472l-36 87q6 55 27 55l9 -8h8q42 0 62 464
q33 55 71 55q59 0 71 -141v-40q0 -96 -62 -283q0 -63 212 -63q247 0 247 55q36 57 45 504q30 86 97 86z" />
    <glyph glyph-name="I" unicode="I" horiz-adv-x="1175" 
d="M234 1284l668 -26h35q72 0 72 -34q0 -47 -125 -53h-178q-88 0 -169 -972v-26q11 -87 35 -87h36q142 0 507 44q167 -16 223 -44v-17q-115 -32 -597 -52q-359 -104 -525 -104q-178 0 -178 69q12 43 62 43q374 0 374 61l9 87v156l16 513l47 312h-9q-383 14 -383 61v17
q38 52 80 52z" />
    <glyph glyph-name="J" unicode="J" horiz-adv-x="1100" 
d="M32 1270q320 -62 1096 -62l283 -8l17 -23q-32 -23 -120 -23h-420q-68 0 -68 -148v-164l34 -498q0 -342 -317 -342q-213 0 -282 155l-43 148q14 39 60 39q74 0 111 -195q48 -38 103 -38h26q118 0 214 77q34 55 34 140v32q0 143 -34 397l25 303q0 94 -111 94l-146 7h-273
q-283 0 -283 47q29 62 94 62z" />
    <glyph glyph-name="K" unicode="K" horiz-adv-x="1053" 
d="M245 1292q43 0 48 -146v-52l-16 -456h8q95 9 546 430q162 164 246 164l23 -26v-17q-34 -49 -293 -250q-380 -344 -380 -369v-9q113 -286 410 -514q176 -95 380 -95q188 0 491 86h16v-8q-90 -164 -523 -164q-379 10 -659 301q-83 147 -218 317h-8q-39 -21 -39 -130v-129
q0 -160 39 -309v-17h-8q-134 55 -134 154q-24 135 -24 276l32 920q42 43 63 43z" />
    <glyph glyph-name="L" unicode="L" horiz-adv-x="1079" 
d="M418 1286q21 -27 26 -76q-148 -811 -148 -1040q6 -161 35 -161h35l246 -31l247 42q297 47 387 47l124 -29v-8q0 -51 -437 -81q-442 -80 -628 -80h-9q-139 -7 -139 56l18 93l-35 67q61 55 61 237q0 256 130 812q0 144 61 144z" />
    <glyph glyph-name="M" unicode="M" horiz-adv-x="1241" 
d="M1016 1362q45 0 51 -101q0 -109 -136 -605l-15 -311q11 -432 244 -571l42 -24l144 -25h26q167 0 299 209l17 83v117l17 15q60 -41 60 -139q0 -192 -299 -363q-80 -23 -145 -23q-384 60 -460 368l-47 208l-11 161q0 173 93 675h-8q-64 -70 -230 -396q-78 -80 -154 -93
q-51 102 -51 140q-36 0 -128 -427q-85 -255 -145 -271h-34q-20 0 -26 39q0 53 154 325q68 361 153 598v38q0 20 -213 47l-43 47v77l26 23h8q31 0 120 -62l68 -7l162 69q34 -35 34 -69l-42 -256v-31q8 -53 25 -55q50 25 179 225q36 102 248 357l8 8h9z" />
    <glyph glyph-name="N" unicode="N" horiz-adv-x="1345" 
d="M1061 1402q134 -221 134 -814q0 -213 -142 -497q-100 -122 -190 -122h-40q-186 0 -388 425l8 7v7l-55 173h-8q-27 0 -72 -259q-31 -403 -87 -403h-31q-40 15 -40 79q158 717 198 993q0 245 48 245h31q67 0 79 -605q77 -295 159 -410q113 -137 182 -137h16q170 0 229 461
v115l-63 612q8 130 32 130z" />
    <glyph glyph-name="O" unicode="O" horiz-adv-x="1871" 
d="M551 1322q151 0 259 -304l23 -7q28 8 145 104q181 110 358 110q228 0 320 -180q30 -69 30 -138v-7q0 -281 -625 -734q-66 -63 -91 -63v7q25 91 358 388q229 274 229 430v48q-25 152 -214 152h-61q-213 0 -388 -228l-31 -118q54 -98 54 -132v-34l-31 -28q-33 13 -53 76h-8
q-53 0 -53 -34h-15l-38 41v28q45 94 45 125l8 7q-17 159 -175 346q-77 48 -122 48h-8q-146 0 -206 -228l-7 -42q0 -233 282 -575q312 -242 312 -304q15 -27 15 -77v-7l-15 -13h-23q-116 68 -365 339q-290 325 -290 610q0 277 244 374z" />
    <glyph glyph-name="P" unicode="P" horiz-adv-x="1192" 
d="M168 1319q537 0 840 -173q63 -66 63 -101v-14q0 -113 -190 -238q-239 -115 -404 -115q-32 -27 -32 -93v-378l24 -180q-14 -49 -55 -64h-40q-34 0 -40 100v58l24 500l-32 475q9 36 64 36q51 0 71 -151q-16 -70 -16 -195l16 -36q271 41 388 137q95 85 95 144
q0 151 -475 194l-166 8q-220 0 -483 -36q-48 16 -48 50q0 72 396 72z" />
    <glyph glyph-name="Q" unicode="Q" horiz-adv-x="1211" 
d="M784 1321q87 0 87 -65v-108q0 -119 119 -230q55 -178 55 -288q-23 -463 -317 -576q-103 -29 -103 -101v-22q0 -130 174 -194h40q143 36 143 187v159h31q44 0 48 -173q0 -204 -182 -267l-72 -7q-171 0 -253 202q0 151 -71 151q-278 26 -278 108q-55 94 -55 166
q0 327 301 813q185 245 333 245zM253 320v-14q0 -194 174 -231l64 -7h23q100 396 167 396q55 0 55 -50l-111 -252v-43l24 -22q317 152 317 504q0 144 -72 266q-190 173 -190 209q103 35 103 94v21q-20 36 -71 36q-136 0 -325 -374q-158 -341 -158 -533z" />
    <glyph glyph-name="R" unicode="R" horiz-adv-x="1097" 
d="M355 1279q449 0 594 -187l16 -65v-21q0 -114 -270 -339q-252 -164 -269 -216q178 -308 491 -403q126 -36 230 -36h87q235 0 515 151v-7q-203 -237 -555 -237h-31q-411 0 -713 324q-34 56 -103 108h-16l-8 -36l8 -159q-11 -121 -48 -129h-31q-32 0 -32 237v202
q0 82 79 410l-8 65q0 72 56 72h24q23 -7 23 -43v-43l-47 -296v-14q0 -34 39 -58q378 166 476 418v14q0 125 -238 173q-73 22 -182 22h-111q-141 0 -341 -87h-39q-24 8 -24 44q0 77 356 129z" />
    <glyph glyph-name="S" unicode="S" horiz-adv-x="1116" 
d="M538 1331q208 0 341 -203v-21h-24q-23 0 -246 119q-61 21 -111 21q-87 -14 -87 -70q0 -61 262 -329q293 -338 293 -552q0 -206 -285 -322q-93 -35 -183 -35q-234 0 -324 189q-24 76 -24 133q0 118 63 147h24q24 0 24 -42h8l-8 -70v-63q0 -138 245 -189l48 -7
q217 0 309 154q16 27 16 77q0 238 -365 615q-198 226 -198 336q0 96 214 112h8z" />
    <glyph glyph-name="T" unicode="T" horiz-adv-x="694" 
d="M-347 1305q353 -94 554 -94q114 0 208 80h24q84 -65 147 -65l48 -7q360 43 670 43l120 -15l1 -7q-128 -93 -524 -93h-348q-104 0 -124 -144q-54 -663 -19 -1119q-11 -165 -34 -165q-56 106 -67 244q-24 322 31 1169l-96 15l-371 -15q-270 0 -275 72q-5 62 55 101z" />
    <glyph glyph-name="U" unicode="U" horiz-adv-x="1107" 
d="M945 1272l16 3l27 -18l4 -21q9 -43 -134 -561q-85 -388 -51 -564l11 -57q27 -142 165 -229l49 -7l16 2q37 6 159 92l20 -19l4 -21q10 -49 -219 -120q-109 -17 -232 141l-31 75l-18 204l-4 64q-38 -95 -211 -201l-38 -13l-47 -8q-139 -22 -211 178l-10 50q-59 306 83 1031
l37 13l16 3q13 2 30 -32q12 -63 -66 -619q-28 -224 -5 -345l5 -28q27 -139 126 -148l15 3q138 22 246 266q63 203 135 641q72 217 113 245z" />
    <glyph glyph-name="V" unicode="V" horiz-adv-x="992" 
d="M1345 1596l8 -7v-7q0 -16 -198 -187q-212 -278 -396 -720q-246 -685 -286 -735l-31 -21h-40q-42 0 -111 504q-71 799 -134 799l-32 86q0 36 71 58q138 0 230 -1145q10 0 16 -50h16q57 55 237 489l254 562q103 206 277 353q57 21 119 21z" />
    <glyph glyph-name="W" unicode="W" horiz-adv-x="1813" 
d="M1167 1302h8q83 -2 364 -275q135 -220 135 -409v-50l8 -9l-8 -8v-50q0 -435 -594 -584l-95 -8q-223 0 -301 225l-24 175h-16q-49 0 -237 -217q-69 -42 -135 -42q-86 0 -95 134q0 236 348 934q58 92 96 92l31 -8v-33q0 -77 -269 -576q-87 -170 -87 -334v-50l16 -33h15
q104 0 317 325q31 82 95 134l40 -9v-217l-8 -33q0 -219 135 -342q58 -34 134 -34q214 0 452 234q87 124 87 284q0 310 -230 559q-166 83 -166 175z" />
    <glyph glyph-name="X" unicode="X" horiz-adv-x="1296" 
d="M1450 1292h9l15 -18l-4 -41q-5 -56 -201 -182l-418 -436q-182 -148 -185 -192q32 -112 276 -297q343 -204 662 -231l84 -7q53 -5 272 34v-8q-106 -115 -362 -93q-397 34 -816 302q-168 213 -200 216q-168 -111 -287 -290q-103 -165 -174 -159q-50 4 -46 45q8 89 443 443
l2 16l-177 472q-58 303 -49 402q52 37 96 33q62 -6 59 -287q-15 -158 133 -484l8 -9l8 -1q93 -8 422 387q242 254 430 385z" />
    <glyph glyph-name="Y" unicode="Y" horiz-adv-x="838" 
d="M87 1366q82 0 182 -396q69 -209 159 -209h16q123 0 435 475q94 130 143 130q16 0 16 -22q-23 -126 -491 -648q-103 -176 -103 -374q-38 -403 -87 -403h-8l-24 115q0 228 63 497q0 87 -174 288q-38 53 -103 338q-18 46 -95 115v7q0 53 71 87z" />
    <glyph glyph-name="Z" unicode="Z" horiz-adv-x="1182" 
d="M1121 1250q31 0 59 -67q0 -80 -336 -463l-508 -617q-25 -34 -25 -66l8 -9h9q279 -40 1581 -91v-10q-55 -76 -1376 -42q-210 4 -337 4h-26q-76 0 -93 56q0 20 255 293q159 247 390 492q214 215 304 351q0 19 -26 19l-686 -46h-25q-60 13 -60 28v29q0 65 447 65
q325 5 419 74h26z" />
    <glyph glyph-name="bracketleft" unicode="[" 
 />
    <glyph glyph-name="backslash" unicode="\" 
 />
    <glyph glyph-name="bracketright" unicode="]" 
 />
    <glyph glyph-name="asciicircum" unicode="^" 
 />
    <glyph glyph-name="underscore" unicode="_" 
 />
    <glyph glyph-name="grave" unicode="`" horiz-adv-x="452" 
d="M105 1318q61 27 87 -26l8 -31l169 -221l-6 -3l-34 -21l-18 -8q-65 -4 -117 100l-17 50q-81 75 -96 103q-11 42 24 57z" />
    <glyph glyph-name="a" unicode="a" horiz-adv-x="760" 
d="M522 885q112 0 112 -422q86 -314 86 -422l-66 -44h-26q-183 0 -436 233q-132 135 -132 272q23 189 158 189h27q119 0 297 -128h6l7 39v6q-7 172 -46 172q-37 0 -132 -84h-27l-26 23q0 60 185 166h13zM146 497q0 -137 237 -328q141 -72 225 -72l13 39q0 271 -271 444
l-72 16h-13q-119 -14 -119 -99z" />
    <glyph glyph-name="b" unicode="b" horiz-adv-x="945" 
d="M123 1035q39 0 39 -120l-20 -394v-24h7q97 204 317 204q254 0 396 -234q33 -76 33 -144q0 -189 -291 -330q-76 -24 -132 -24h-33q-170 0 -231 180q7 36 20 36q35 0 132 -108q25 -18 60 -18h46q164 0 303 150q29 41 40 114q0 204 -304 294l-59 6q-177 0 -231 -174
q-33 -104 -33 -264v-36l13 -138q-4 -66 -59 -66h-13q-58 0 -73 892q0 198 73 198z" />
    <glyph glyph-name="c" unicode="c" horiz-adv-x="800" 
d="M354 809q30 -12 33 -24v-12q0 -58 -126 -84q-112 -115 -112 -306q0 -284 198 -330l46 -6q136 0 277 162l80 48q0 -116 -185 -258q-116 -54 -198 -54q-244 0 -310 366l-7 84q0 224 139 348q130 66 165 66z" />
    <glyph glyph-name="d" unicode="d" horiz-adv-x="802" 
d="M679 1235h13q43 -21 43 -119v-90q0 -124 -12 -198l6 -220v-119q-6 -175 -44 -175h-12q-37 0 -68 232q-64 124 -162 124q-114 0 -242 -232q-50 -115 -50 -226q0 -86 81 -147q58 -17 105 -17q82 0 280 119q29 17 106 34q-79 -136 -324 -215l-93 -11h-43q-193 0 -193 215
q0 196 149 418q106 135 230 135q75 0 174 -84h6q23 0 31 90l-18 384q8 102 37 102z" />
    <glyph glyph-name="e" unicode="e" horiz-adv-x="857" 
d="M485 785q66 -14 66 -60v-36q0 -90 -185 -294q-158 -48 -158 -168q0 -146 238 -192h46q269 0 510 304l93 66v-6q-24 -127 -253 -328q-247 -126 -423 -126q-208 0 -270 174l-7 30l7 156l-179 54l-26 30q15 60 59 60q99 -48 126 -48q67 0 125 216q122 168 231 168zM248 431
h6q138 55 205 168l6 30v12q0 31 -19 36h-14q-92 -67 -165 -192z" />
    <glyph glyph-name="f" unicode="f" horiz-adv-x="651" 
d="M398 1186q110 0 191 -284l6 -68v-50q0 -47 -27 -55q-40 38 -115 290l-41 43h-20q-78 0 -89 -191v-6l18 -521l14 -37l116 6h33q41 -4 41 -18v-6q-13 -20 -170 -68l-6 -7l13 -179q-7 -80 -34 -80h-7q-61 0 -61 74l14 148l-27 13l-123 -44q-54 13 -54 68q0 38 177 62l20 37
l-45 521v31q0 246 122 309z" />
    <glyph glyph-name="g" unicode="g" horiz-adv-x="814" 
d="M468 714q224 0 264 -379v-83q0 -434 -189 -703q-190 -159 -348 -159h-37q-114 0 -174 131l-8 83q0 172 68 172l8 -21l-8 -151q53 -124 174 -124q139 0 280 158q68 81 113 352l8 117q0 28 -15 28q-49 -26 -136 -104l-53 -13q-240 0 -303 358v35q0 255 356 303zM233 404
v-21q0 -173 136 -241l53 -7q109 0 174 214l15 82q-20 186 -158 186q-191 0 -220 -213z" />
    <glyph glyph-name="h" unicode="h" horiz-adv-x="846" 
d="M89 1080h6q24 0 45 -193q65 -253 104 -527q16 0 83 199q126 145 207 145h45q33 0 77 -91q52 -114 52 -242l-13 -392l19 -140v-16q0 -41 -64 -48q-32 30 -32 91l13 398q-18 360 -91 360h-38q-125 0 -200 -339l-7 -75l10 -141q11 -43 -14 -63q-4 -27 -15 -28h-7
q-58 0 -58 87q-38 334 -155 881l-6 75q0 45 39 59z" />
    <glyph glyph-name="i" unicode="i" horiz-adv-x="357" 
d="M203 986q50 -13 50 -60q-17 -77 -82 -77q-81 0 -81 64q23 73 107 73h6zM174 742q43 0 43 -127l-6 -459q6 -83 30 -167v-11q-55 -33 -73 -33q-18 34 -18 105v39l6 415q-6 105 -31 222q26 16 49 16z" />
    <glyph glyph-name="j" unicode="j" horiz-adv-x="437" 
d="M211 968q77 0 77 -61v-11q-10 -84 -67 -84h-15q-57 0 -82 103v3q64 50 87 50zM243 744l26 -90l-6 -216l20 -322v-24q0 -217 -192 -422q-62 -36 -99 -36h-13q-113 0 -165 174v6q10 24 20 24h20q14 -3 66 -96q37 -24 79 -24q110 0 211 356l13 120l-26 340v42q6 141 46 168z
" />
    <glyph glyph-name="k" unicode="k" horiz-adv-x="744" 
d="M133 1127q48 0 59 -186v-12l-13 -498l13 -36h7q49 0 277 216q72 54 119 54h6q27 -12 27 -36q-16 -43 -185 -132q-166 -192 -231 -192q33 -37 290 -162q139 -132 212 -132v-24l-20 -18h-33q-83 0 -423 216l-33 6l-13 -24l20 -168q-4 -54 -33 -54q-63 0 -92 330l26 552v42
l-33 198q0 35 53 60z" />
    <glyph glyph-name="l" unicode="l" horiz-adv-x="358" 
d="M229 1059q33 -43 33 -126q0 -95 -53 -522l13 -276q-13 -210 -59 -210q-53 0 -53 54q42 842 66 1026q0 54 40 54h13z" />
    <glyph glyph-name="m" unicode="m" horiz-adv-x="1192" 
d="M469 761q119 0 185 -130l59 -142q37 47 92 181q37 59 119 59h27q157 0 191 -396q0 -321 -92 -376l-27 -13h-20q-13 0 -13 19l60 396q-20 240 -139 279h-7q-50 0 -112 -110q-64 -253 -66 -396q-28 -84 -119 -84h-6l-7 19l40 221q0 281 -139 376l-46 13q-134 0 -191 -221
v-52l26 -311q0 -57 -66 -84h-26q-16 0 -33 246q-139 356 -139 435q0 52 46 52h20q37 0 79 -234h13l99 149q96 104 192 104z" />
    <glyph glyph-name="n" unicode="n" horiz-adv-x="740" 
d="M545 695q145 0 145 -210l-26 -402v-54q0 -46 -27 -54h-26q-27 0 -40 126l47 372q0 114 -99 144h-14q-91 0 -198 -180q-26 -69 -26 -126l26 -246q-52 -42 -85 -42h-7q-27 0 -79 402q-86 169 -86 210q34 54 86 54q38 -65 79 -234l7 -6h13q18 0 72 132q136 114 238 114z" />
    <glyph glyph-name="o" unicode="o" horiz-adv-x="933" 
d="M432 764q64 0 86 -103q35 -2 35 -16q56 24 104 24q117 0 208 -221l18 -118q0 -209 -200 -300q-136 -55 -277 -55q-347 32 -347 221l-9 39q0 219 208 465q102 64 174 64zM152 272q0 -171 183 -224h100q239 0 357 216l18 66v25q0 111 -256 250q-52 66 -100 66
q-200 0 -302 -316v-83z" />
    <glyph glyph-name="p" unicode="p" horiz-adv-x="712" 
d="M178 840q183 15 426 -96q40 -42 44 -82l3 -32q15 -228 -213 -389l-63 -25l-114 -2q-72 -6 -64 -306q9 -452 -17 -454l-35 -9q-24 26 -26 50q11 510 36 919q0 229 56 233q47 -12 50 -47l-54 -279l1 -7q4 -45 68 -40q142 11 247 130q37 60 33 166l-1 13q-12 120 -245 157
q-278 -22 -282 17q38 74 150 83z" />
    <glyph glyph-name="q" unicode="q" horiz-adv-x="874" 
d="M474 788q181 0 258 -219q25 -87 25 -167q0 -82 -209 -1180v-99q0 -146 117 -174h8q183 63 183 144q47 77 67 83h33l25 -22q0 -99 -200 -273q-62 -30 -124 -30q-147 0 -200 227l-17 166q0 149 117 681q16 68 16 182q-118 -30 -208 -30q-186 0 -249 151l-17 114
q0 229 225 401q85 45 150 45zM203 359v-16q22 -199 192 -199h9q245 40 245 223l9 40q0 218 -184 287h-35q-142 0 -227 -271z" />
    <glyph glyph-name="r" unicode="r" horiz-adv-x="842" 
d="M613 775q150 -10 150 -38v-17q0 -11 -18 -11l-126 6q-113 -20 -193 -98q-106 -113 -138 -312l-6 -60l6 -109v-71q0 -60 -54 -60h-12q-47 0 -72 366q-27 111 -90 235v16q8 27 42 27h6q51 0 114 -273h6q13 1 72 208q126 191 313 191z" />
    <glyph glyph-name="s" unicode="s" horiz-adv-x="674" 
d="M309 802q205 -27 205 -119l7 -45q0 -34 -44 -53q-108 113 -175 127q-35 -11 -58 -74q0 -50 262 -286q146 -100 146 -248q0 -129 -153 -129h-58q-203 0 -409 165l-44 74h7q124 -30 380 -140l66 -9h65q52 0 52 46q-53 114 -201 260q-208 165 -208 293v55q34 83 160 83z" />
    <glyph glyph-name="t" unicode="t" horiz-adv-x="680" 
d="M319 1351q13 -4 22 -47l3 -173l-8 -327l4 -39q8 -89 57 -71l44 2l147 -6l19 -2l14 -44q15 -41 -253 -27q-26 -42 -26 -100l-17 -489q26 -93 -42 -99q-21 -2 -33 56l33 605q15 33 -47 27l-100 -14q-63 -5 -69 70q-2 24 101 20l94 17q39 21 23 235l-1 138q-37 273 10 266z
" />
    <glyph glyph-name="u" unicode="u" horiz-adv-x="595" 
d="M248 751v-14l-46 -101q-60 -194 -60 -321v-48q15 -174 126 -174q198 32 198 104v14q0 34 -53 340v14l13 42h27q42 0 92 -312v-14q0 -188 -251 -286h-66q-113 0 -165 146l-13 98q0 223 152 505z" />
    <glyph glyph-name="v" unicode="v" horiz-adv-x="655" 
d="M537 816q30 0 30 -128q0 -521 -63 -614q-57 -99 -128 -99v0q-154 0 -242 481q-64 206 -64 261q8 41 23 41h24q44 0 99 -406q100 -302 160 -302q91 0 138 290l6 76l-12 261q7 139 29 139z" />
    <glyph glyph-name="w" unicode="w" horiz-adv-x="1006" 
d="M242 759q30 -5 32 -15l8 -44q9 -44 -115 -372q-48 -159 -36 -221l1 -7q18 -21 48 -25q83 13 227 318q58 9 113 -178q50 -117 142 -102l35 6q156 25 170 276l-8 38q-35 180 -218 200l-14 -2l-2 6q27 37 106 50q114 18 181 -154l20 -69q61 -310 -221 -415l-55 -15l-21 -4
q-126 -20 -195 80q-34 86 -52 83q-147 -200 -267 -219q-59 -9 -93 70q-10 52 104 429q32 273 110 286z" />
    <glyph glyph-name="x" unicode="x" horiz-adv-x="807" 
d="M117 801q66 0 237 -370l22 -14q39 9 265 267l67 61h7v-7q-14 -71 -104 -202q-197 -187 -197 -220q0 -133 333 -303q103 -34 148 -34q61 0 119 47v-6q-39 -108 -111 -108l-30 -7h-22q-195 0 -408 202q-94 121 -126 101q-58 0 -133 -195q-21 -27 -52 -27q-37 5 -37 20
q0 64 178 263q22 24 22 47v7q0 30 -193 343l-22 88q6 47 37 47z" />
    <glyph glyph-name="y" unicode="y" horiz-adv-x="824" 
d="M674 826q33 0 33 -54v-48l-39 -354q0 -85 103 -584q13 -71 13 -188v-42q0 -698 -482 -978q-184 -78 -297 -78q-205 0 -297 222q-26 108 -26 198q0 382 409 516l152 24h7v-6l-317 -138q-178 -97 -178 -384v-18q0 -203 118 -300q53 -36 119 -36h46q233 0 476 258
q184 268 184 708q0 220 -110 910q-39 0 -191 -114l-73 -12q-184 0 -184 240v36q0 132 59 174h20q20 0 26 -48l-20 -198q0 -126 146 -126q153 0 231 342q34 78 72 78z" />
    <glyph glyph-name="z" unicode="z" horiz-adv-x="965" 
d="M631 656q26 -11 26 -22q0 -91 -244 -326l-152 -193h7q98 30 297 45q253 0 350 -148v-23h-14l-191 52q-36 15 -185 23q-197 0 -389 -112l-53 -7q-33 8 -33 59q8 33 145 134q291 340 291 355v30l-40 7l-297 -44q-26 10 -26 66q0 25 508 104z" />
    </font>
</defs>
</svg>
